# Blender 3.5.1
# www.blender.org
mtllib 1.mtl
o 0
v 1.000000 1.000000 0.250000
v 1.000000 -0.000000 0.000000
v 1.000000 1.000000 0.750000
v 1.000000 0.000000 1.000000
v 0.500000 1.000000 0.250000
v 0.000000 -0.000000 0.000000
v 0.500000 1.000000 0.750000
v 0.000000 0.000000 1.000000
vn -0.0000 1.0000 -0.0000
vn -0.0000 0.2425 0.9701
vn -0.8944 0.4472 -0.0000
vn -0.0000 0.2425 -0.9701
vt 0.000000 1.000000
vt 0.000000 0.000000
vt 0.000000 0.000000
vt 0.000000 0.000000
vt 0.000000 1.000000
vt 0.000000 0.999902
vt 1.000000 1.000000
vt 1.000000 0.000000
vt 1.000000 0.000000
vt 1.000000 0.999902
vt 1.000000 0.000000
vt 0.000000 0.000000
vt 1.000000 1.000000
vt 1.000000 0.999902
vt 0.000000 0.999902
s 0
usemtl Material.001
f 1/2/1 5/8/1 7/13/1
f 4/6/2 7/11/2 8/14/2
f 8/15/3 7/12/3 6/10/3
f 6/9/4 5/7/4 1/1/4
f 1/1/4 2/3/4 6/9/4
f 7/11/2 4/6/2 3/4/2
f 6/10/3 7/12/3 5/8/3
f 7/13/1 3/5/1 1/2/1
