# Blender 3.5.1
# www.blender.org
mtllib 2.mtl
o 0.001
v 1.000000 1.000000 0.750000
v 1.000000 0.000000 1.000000
v 0.250000 1.000000 -0.000000
v 0.000000 0.000000 0.000000
v 0.250000 1.000000 0.750000
v 0.000000 0.000000 1.000000
v 1.000000 1.000000 0.250000
v 0.750000 1.000000 -0.000000
v 1.000000 0.000000 0.000000
v 0.625000 1.000000 0.375000
vn -0.0000 0.2425 0.9701
vn 0.6963 0.1741 -0.6963
vn -0.9701 0.2425 -0.0000
vn -0.0000 1.0000 -0.0000
vt 0.999900 0.999900
vt 2.359775 0.999900
vt 0.999900 -0.999700
vt 0.000100 0.000100
vt 1.679837 -3.039513
vt 0.999900 0.000100
vt 2.019806 -1.019807
vt 0.333367 1.000000
vt 0.333367 0.999900
vt 0.000100 0.666633
vt -0.800000 1.800000
vt 0.500000 0.500000
s 0
usemtl Material.002
f 2/2/1 1/1/1 5/6/1 6/7/1
f 7/8/2 9/11/2 8/10/2
f 5/6/3 3/3/3 4/5/3 6/7/3
f 10/12/4 5/6/4 1/1/4 7/9/4
f 3/4/4 5/6/4 10/12/4 8/10/4
f 7/9/4 8/10/4 10/12/4
