# Blender 3.5.1
# www.blender.org
mtllib 6.mtl
o 0
v 1.000000 1.000000 0.250000
v 1.000000 0.000000 0.000000
v 0.750000 1.000000 1.000000
v 0.000000 1.000000 0.250000
v 0.000000 0.000000 0.000000
v 0.000000 1.000000 1.000000
v 1.000000 1.000000 0.750000
v 1.000000 0.000000 1.000000
v 0.000000 1.000000 0.750037
vn -0.0000 1.0000 -0.0000
vn 0.6963 0.1741 0.6963
vn -0.0000 0.2425 -0.9701
vt 0.663594 -0.413550
vt 1.516543 -1.266796
vt 0.000137 0.250137
vt 0.664161 0.999925
vt 1.517916 0.999894
vt 0.000078 0.999950
vt 0.249837 0.000350
vt -0.591952 -0.591003
vt 0.250013 0.999941
s 0
usemtl Material.006
f 6/6/1 3/3/1 7/7/1 9/9/1
f 9/9/1 7/7/1 1/1/1 4/4/1
f 7/7/2 3/3/2 8/8/2
f 1/1/3 2/2/3 5/5/3 4/4/3
