# Blender 3.5.1
# www.blender.org
mtllib 7.mtl
o 0
v 1.000000 1.000000 0.250000
v 1.000000 0.000000 0.000000
v 1.000000 1.000000 1.000000
v 0.000000 1.000000 0.250000
v 0.000000 0.000000 0.000000
v 0.250000 1.000000 1.000000
v 0.000000 1.000000 0.750000
v 0.000000 0.000000 1.000000
v 1.000000 1.000000 0.750013
vn -0.0000 1.0000 -0.0000
vn -0.6963 0.1741 0.6963
vn -0.0000 0.2425 -0.9701
vt 0.664184 0.000059
vt 1.517993 0.000070
vt 0.000060 0.000050
vt 0.664201 1.414140
vt 1.518044 2.268005
vt -0.000018 0.749894
vt 0.250044 0.999929
vt -0.595239 1.596311
vt 0.250021 0.000053
s 0
usemtl Material.008
f 6/6/1 3/3/1 9/9/1 7/7/1
f 7/7/1 9/9/1 1/1/1 4/4/1
f 7/7/2 8/8/2 6/6/2
f 1/1/3 2/2/3 5/5/3 4/4/3
