# Blender 3.5.1
# www.blender.org
mtllib 8.mtl
o 0.001
v 1.000000 1.000000 0.750000
v 1.000000 0.000000 1.000000
v 0.250000 1.000000 -0.000000
v 0.000000 0.000000 0.000000
v 0.250000 1.000000 0.750000
v 0.000000 0.000000 1.000000
v 1.000000 1.000000 -0.000000
vn -0.0000 0.2425 0.9701
vn -0.0000 1.0000 -0.0000
vn -0.9701 0.2425 -0.0000
vt 0.999925 0.125000
vt 0.999925 -0.967681
vt 0.125000 0.999925
vt -0.967681 0.999925
vt 0.125000 0.125000
vt 0.125000 -0.967681
vt -0.967681 0.125000
vt 0.999925 0.999925
s 0
usemtl Material.006
f 5/5/1 6/6/1 2/2/1 1/1/1
f 7/8/2 3/3/2 5/5/2 1/1/2
f 6/7/3 5/5/3 3/3/3 4/4/3
