# Blender 3.5.1
# www.blender.org
mtllib 9.mtl
o 0
v 1.000000 1.000000 0.250000
v 0.750000 1.000000 1.000000
v 0.000000 1.000000 0.250000
v 0.250000 1.000000 1.000000
v 0.000000 1.000000 0.750000
v 1.000000 1.000000 0.750000
v 0.000000 0.000000 1.000000
v 1.000000 0.000000 1.000000
v 0.750000 1.000000 -0.000000
v 0.250000 1.000000 -0.000000
v 1.000000 0.000000 0.000000
v 0.000000 -0.000000 -0.000000
v 0.500000 1.000000 0.500000
vn -0.6963 0.1741 0.6963
vn 0.6963 0.1741 0.6963
vn -0.6963 0.1741 -0.6963
vn 0.6963 0.1741 -0.6963
vn -0.0000 1.0000 -0.0000
vt 0.249143 1.000171
vt 0.999920 0.751225
vt -0.001347 0.247672
vt 0.246407 -0.000082
vt 1.002450 0.247510
vt 0.749960 -0.001185
vt 0.751225 0.998655
vt 1.589366 -0.606665
vt 1.573083 1.582085
vt -0.000171 0.751118
vt 0.246407 -0.000082
vt -0.001347 0.247672
vt -0.589874 1.591194
vt -0.587208 -0.585311
vt 0.500000 0.500000
s 0
usemtl Material.011
f 5/6/1 7/8/1 4/5/1
f 6/7/2 2/2/2 8/9/2
f 3/3/3 10/11/3 12/14/3
f 9/10/4 1/1/4 11/13/4
f 1/1/5 9/10/5 13/15/5
f 2/2/5 13/15/5 4/5/5
f 3/4/5 13/15/5 10/12/5
f 6/7/5 13/15/5 2/2/5
f 5/6/5 13/15/5 3/4/5
f 13/15/5 6/7/5 1/1/5
f 4/5/5 13/15/5 5/6/5
f 13/15/5 9/10/5 10/12/5
