# Blender 3.5.1
# www.blender.org
mtllib C.mtl
o 0
v 1.000000 1.000000 -0.000000
v 0.750000 1.000000 1.000000
v 0.000000 1.000000 -0.000000
v 0.000000 1.000000 1.000000
v 1.000000 1.000000 0.750000
v 1.000000 0.000000 1.000000
v 0.500000 1.000000 0.500000
vn 0.6963 0.1741 0.6963
vn -0.0000 1.0000 -0.0000
vt 0.001368 1.000171
vt 0.999920 0.751225
vt -0.001368 -0.000082
vt 1.002450 0.000000
vt 0.751225 0.998655
vt 1.573083 1.582085
vt 0.500000 0.500000
s 0
usemtl Material.011
f 5/5/1 2/2/1 6/6/1
f 2/2/2 7/7/2 4/4/2
f 1/1/2 3/3/2 7/7/2
f 5/5/2 7/7/2 2/2/2
f 4/4/2 7/7/2 3/3/2
f 7/7/2 5/5/2 1/1/2
