# Blender 3.5.1
# www.blender.org
mtllib hard_fish-fork_hang.mtl
o Cube.013
v 0.750000 1.000000 1.000000
v 1.000000 1.000000 0.250000
v 1.000000 0.000000 0.250000
v 1.000000 1.000000 0.750000
v 0.750000 0.000000 1.000000
v 1.000000 0.000000 0.750000
v 0.000000 1.000000 0.250000
v 0.000000 0.000000 0.250000
v 0.000000 1.000000 1.000000
v 0.000000 0.000000 1.000000
v 0.750000 1.000000 -0.000000
v 0.250000 1.000001 -0.000000
v 0.250000 0.000000 0.000000
v 0.750000 0.000000 0.000000
v 0.000000 0.750000 -0.000000
v 0.000000 0.250000 -0.000000
v 1.000000 0.750000 1.000000
v 1.000000 0.250000 1.000000
v 1.000000 0.250000 -0.000000
v 1.000000 0.750000 -0.000000
vn -0.5774 -0.5774 -0.5774
vn -0.5774 0.5773 -0.5773
vn 0.5774 0.5774 0.5774
vn 0.5774 -0.5774 0.5774
vn 0.5774 -0.5774 -0.5774
vn -0.0000 1.0000 -0.0000
vn -0.0000 -1.0000 -0.0000
vn 0.5774 0.5774 -0.5774
vt 0.750000 1.000000
vt 1.000000 0.250000
vt 0.658494 0.341507
vt 1.000524 0.251212
vt 1.000000 0.750000
vt 0.750000 1.000000
vt 0.658494 0.658494
vt 1.001247 0.750590
vt 0.000000 0.250000
vt 0.000000 0.250000
vt -0.000595 1.000595
vt 0.000000 1.000000
vt 0.750000 0.000000
vt 0.250000 0.000000
vt 0.250000 0.000000
vt 0.750000 0.000000
vt 0.341507 0.341507
vt 0.341507 0.341507
vt 0.658494 0.658494
vt 1.000000 0.750000
vt 1.000524 0.251212
vt 0.658494 0.341506
s 0
usemtl Material.025
f 13/15/1 8/10/1 16/18/1
f 12/14/2 15/17/2 7/9/2
f 4/5/3 1/1/3 17/19/3
f 6/7/4 18/20/4 5/6/4
f 14/16/5 19/21/5 3/3/5
f 2/2/6 11/13/6 12/14/6 7/9/6 9/11/6 1/1/6 4/5/6
f 6/8/7 5/6/7 10/12/7 8/10/7 13/15/7 14/16/7 3/4/7
f 20/22/8 11/13/8 2/2/8
