# Blender 3.5.1
# www.blender.org
mtllib hard_bow-fork_hang.mtl
o Cube.013
v 0.250000 0.000000 0.000000
v 0.250000 1.000000 -0.000000
v 1.000000 0.000000 0.750000
v 0.000000 1.000000 0.250000
v 0.000000 0.000000 0.250000
v 0.750000 1.000000 1.000000
v 1.000000 1.000000 0.750000
v 0.750000 0.000000 1.000000
v 1.000000 0.750000 1.000000
v 1.000000 0.250000 1.000000
v 0.000000 1.000000 1.000000
v 0.000000 0.000000 1.000000
v 0.000000 0.750000 -0.000000
v 0.000000 0.250000 -0.000000
v 1.000000 1.000000 -0.000000
v 1.000000 0.000000 0.000000
vn -0.5774 -0.5774 -0.5774
vn 0.5774 -0.5774 0.5774
vn 0.5774 0.5774 0.5774
vn -0.5774 0.5774 -0.5774
vn -0.0000 -1.0000 -0.0000
vn -0.0000 1.0000 -0.0000
vt 0.250000 0.000000
vt 0.250000 0.000000
vt 1.000000 0.750000
vt 0.000000 0.250000
vt 0.000000 0.250000
vt 0.750000 1.000000
vt 1.000000 0.750000
vt 0.750000 1.000000
vt 0.658494 0.658494
vt 0.658494 0.658494
vt 0.000000 1.000000
vt 0.000000 1.000000
vt 0.341506 0.341506
vt 0.341506 0.341506
vt 1.000000 0.000000
vt 1.000000 0.000000
s 0
usemtl Material.024
f 5/5/1 14/14/1 1/1/1
f 8/8/2 3/3/2 10/10/2
f 9/9/3 7/7/3 6/6/3
f 4/4/4 2/2/4 13/13/4
f 5/5/5 1/1/5 16/16/5 12/12/5
f 2/2/6 4/4/6 11/11/6 15/15/6
f 7/7/6 15/15/6 11/11/6 6/6/6
f 8/8/5 12/12/5 16/16/5 3/3/5
