# Blender 3.5.1
# www.blender.org
mtllib hard_corner.mtl
o 0.001
v 1.000000 1.000000 0.750000
v 1.000000 0.000000 1.000000
v 0.250000 1.000000 -0.000000
v 0.000000 0.000000 0.000000
v 0.250000 1.000000 0.750000
v 0.000000 0.000000 1.000000
v 1.000000 1.000000 -0.000000
vn -0.0000 0.2425 0.9701
vn -0.0000 1.0000 -0.0000
vn -0.9701 0.2425 -0.0000
vt 1.000000 0.999902
vt 0.999900 0.000100
vt 1.000000 0.000000
vt 0.000100 0.999900
vt 0.000000 0.999902
vt 0.000000 0.000098
vt 0.273836 0.999902
vt 0.000100 0.000100
vt 0.727562 0.999902
vt 0.031348 0.000000
vt 0.970050 0.000099
vt 0.999900 0.999900
s 0
usemtl Material.006
f 5/7/1 6/10/1 2/3/1 1/1/1
f 7/12/2 3/4/2 5/8/2 1/2/2
f 6/11/3 5/9/3 3/5/3 4/6/3
