# Blender 3.5.1
# www.blender.org
mtllib hard_slope_hang.mtl
o Cube.013
v 1.000000 1.000000 1.000000
v 0.000000 1.000001 1.000000
v 1.000000 1.000000 0.250000
v 1.000000 0.000000 0.250000
v 0.000000 0.750000 -0.000000
v 0.000000 1.000000 0.250000
v 0.000000 0.000000 0.250000
v 1.000000 0.750000 -0.000000
v 0.000000 0.250000 -0.000000
v 1.000000 0.250000 -0.000000
vn -0.0000 1.0000 -0.0000
vn -0.0000 0.7071 -0.7071
vn -0.0000 -0.0000 -1.0000
vn -0.0000 -0.7071 -0.7071
vt 0.749957 0.999913
vt 0.749957 0.000087
vt 0.000087 0.999913
vt 0.353571 0.999941
vt 0.000059 0.999941
vt 0.000060 0.000059
vt 0.500000 0.000071
vt 0.000087 0.000087
vt 0.353571 0.000059
vt 0.000060 0.000059
vt 0.000059 0.999941
vt 0.500000 0.999929
vt 0.000071 0.000071
vt 0.353571 0.000060
vt 0.000071 0.999929
vt 0.353571 0.999941
s 0
usemtl Material.018
f 2/2/1 1/1/1 3/3/1 6/8/1
f 6/9/2 3/4/2 8/11/2 5/6/2
f 5/7/3 8/12/3 10/15/3 9/13/3
f 7/10/4 9/14/4 10/16/4 4/5/4
