# Blender 3.5.1
# www.blender.org
mtllib hard_slope.mtl
o 0
v 1.000000 1.000000 0.250000
v 1.000000 0.000000 0.000000
v 1.000000 1.000000 1.000000
v 0.000000 1.000000 0.250000
v 0.000000 0.000000 0.000000
v 0.000000 1.000000 1.000000
vn -0.0000 0.2425 -0.9701
vn -0.0000 1.0000 -0.0000
vt 0.970050 0.000099
vt 0.000087 0.999913
vt 0.970050 0.999902
vt 0.749957 0.999913
vt 0.000087 0.000087
vt 0.000098 0.999902
vt 0.749957 0.000087
s 0
usemtl Material.013
f 1/1/1 2/3/1 5/6/1 4/5/1
f 6/7/2 3/4/2 1/2/2 4/5/2
