# Blender 3.5.1
# www.blender.org
mtllib hard_end_hang.mtl
o 0.002
v 0.000000 1.000000 0.250000
v 0.000000 0.000000 0.250000
v 0.000000 1.000000 0.750000
v 0.000000 0.000000 0.750000
v 0.000000 0.750000 1.000000
v 0.000000 0.750000 -0.000000
v 0.000000 0.250000 -0.000000
v 0.000000 0.250000 1.000000
v 0.500000 0.312500 0.875000
v 0.500000 0.312500 0.125000
v 0.500000 0.687500 0.125000
v 0.500000 0.687500 0.875000
v 0.500000 0.125000 0.687500
v 0.500000 0.875000 0.687500
v 0.500000 0.125000 0.312500
v 0.500000 0.875000 0.312500
v 1.000000 0.687500 0.406250
v 1.000000 0.312500 0.406250
v 1.000000 0.687500 0.593750
v 1.000000 0.312500 0.593750
v 1.000000 0.593750 0.687500
v 1.000000 0.593750 0.312500
v 1.000000 0.406250 0.312500
v 1.000000 0.406250 0.687500
vn 0.2563 0.6835 0.6835
vn 0.2425 -0.0000 0.9701
vn 0.2563 -0.6835 0.6835
vn 0.2425 -0.0000 -0.9701
vn 0.2563 -0.6835 -0.6835
vn 0.2425 -0.9701 -0.0000
vn 0.2425 0.9701 -0.0000
vn 0.2563 0.6835 -0.6835
vn 0.3511 -0.9363 -0.0000
vn 0.3696 0.6570 0.6570
vn 0.3696 0.6570 -0.6570
vn 0.3511 -0.0000 0.9363
vn 0.3511 0.9363 -0.0000
vn 0.3696 -0.6570 0.6570
vn 0.3696 -0.6570 -0.6570
vn 0.3511 -0.0000 -0.9363
vn 1.0000 -0.0000 -0.0000
vt 0.000099 0.000098
vt 0.683456 0.000083
vt 0.683456 0.999917
vt 0.000098 0.999902
vt 0.683456 0.999917
vt 0.970050 0.000099
vt 0.000083 0.999917
vt 0.970050 0.999901
vt 0.000083 0.999917
vt 0.000099 0.000098
vt 0.970050 0.000099
vt 0.000083 0.000083
vt 0.000098 0.000098
vt 0.000083 0.999917
vt 0.970050 0.000099
vt 0.683456 0.999917
vt 0.848806 0.999901
vt 0.598034 0.000083
vt 0.000084 0.999916
vt 0.492782 0.999930
vt 0.121342 0.999902
vt 0.085504 0.000083
vt 0.000070 0.999930
vt 0.702213 0.999916
vt 0.848806 0.999902
vt 0.085504 0.999917
vt 0.492782 0.999930
vt 0.000084 0.999916
vt 0.085504 0.000083
vt 0.121343 0.999901
vt 0.000070 0.999930
vt 0.702213 0.999916
vt 0.085504 0.000083
vt 0.848806 0.000098
vt 0.702213 0.999916
vt 0.000070 0.999930
vt 0.598034 0.000083
vt 0.848806 0.999901
vt 0.492782 0.999930
vt 0.000084 0.999916
vt 0.598034 0.000083
vt 0.121342 0.000098
vt 0.000084 0.999916
vt 0.492782 0.999930
vt 0.121343 0.999901
vt 0.598034 0.999917
vt 0.000070 0.999930
vt 0.702213 0.999916
vt 0.123248 0.000070
vt 0.526681 0.000084
vt 0.749950 0.999900
vt 0.175616 0.000084
vt 0.369604 0.000070
vt 0.749950 0.000100
vt 0.369604 0.000070
vt 0.175616 0.000084
vt 0.250050 0.999900
vt 0.526681 0.000084
vt 0.123248 0.000070
vt 0.250050 0.000100
vt 0.123248 0.000070
vt 0.526681 0.000084
vt 0.000100 0.749950
vt 0.369604 0.000070
vt 0.175616 0.000084
vt 0.999900 0.749950
vt 0.123248 0.000070
vt 0.526681 0.000084
vt 0.999900 0.250050
vt 0.175616 0.000084
vt 0.369604 0.000070
vt 0.000100 0.250050
s 0
usemtl Material.032
f 3/5/1 5/9/1 12/29/1 14/37/1
f 5/10/2 8/15/2 9/17/2 12/30/2
f 4/7/3 13/33/3 9/18/3 8/16/3
f 6/11/4 11/25/4 10/21/4 7/13/4
f 2/3/5 7/14/5 10/22/5 15/41/5
f 2/4/6 15/42/6 13/34/6 4/8/6
f 1/1/7 3/6/7 14/38/7 16/45/7
f 1/2/8 16/46/8 11/26/8 6/12/8
f 13/35/9 15/43/9 18/52/9 20/58/9
f 14/39/10 12/31/10 21/61/10 19/55/10
f 11/27/11 16/47/11 17/49/11 22/64/11
f 12/32/12 9/19/12 24/70/12 21/62/12
f 16/48/13 14/40/13 19/56/13 17/50/13
f 9/20/14 13/36/14 20/59/14 24/71/14
f 15/44/15 10/23/15 23/67/15 18/53/15
f 10/24/16 11/28/16 22/65/16 23/68/16
f 23/69/17 22/66/17 17/51/17 19/57/17 21/63/17 24/72/17 20/60/17 18/54/17
