# Blender 3.5.1
# www.blender.org
mtllib hard_corner_cliff.mtl
o Cube.013
v 0.000000 1.000000 1.000000
v 1.000000 0.000000 0.000000
v 0.000000 1.000000 0.250000
v 1.000000 0.000000 1.000000
v 0.000000 0.000000 0.500000
v 0.000000 0.000000 1.000000
v 0.250000 1.000000 -0.000000
v 1.000000 1.000000 -0.000000
v 0.500000 0.000000 0.000000
v 0.000000 0.500000 0.250000
v 0.250000 0.500000 -0.000000
vn -0.7071 -0.0000 -0.7071
vn -0.6949 -0.1848 -0.6949
vn -0.0000 -1.0000 -0.0000
vn -0.4757 -0.6950 0.5392
vn -0.6331 -0.7737 -0.0225
vn -0.0225 -0.7737 -0.6331
vn -1.0000 -0.0000 -0.0000
vn -0.0000 -0.0000 -1.0000
vt 0.749957 0.999913
vt 0.999900 0.999900
vt 0.000087 0.000087
vt 0.514716 0.999917
vt 0.000087 0.999913
vt 0.000100 0.999900
vt 0.500000 0.000100
vt 0.686261 0.000083
vt 0.250043 0.000087
vt 0.000100 0.000100
vt 0.749957 0.000087
vt 0.171627 0.999917
vt 0.749957 0.999913
vt 0.000087 0.999913
vt 0.999900 0.500000
vt 0.000083 0.000083
vt 0.500000 0.000087
vt 0.514716 0.514716
vt 0.000087 0.500000
vt 0.171627 0.514716
vt 0.749957 0.500000
s 1
usemtl Material.002
f 7/12/1 11/20/2 10/18/2 3/4/1
s 0
f 4/6/3 6/10/3 5/7/4 9/15/3 2/2/3
s 1
f 9/16/5 5/8/6 10/18/2 11/20/2
s 0
f 6/11/7 1/1/7 3/5/7 10/19/7 5/9/7
f 2/3/8 9/17/8 11/21/8 7/13/8 8/14/8
