# Blender 3.5.1
# www.blender.org
mtllib hard_end.mtl
o 0
v 1.000000 1.000000 0.250000
v 1.000000 1.000000 0.750000
v 0.500000 1.000000 0.250000
v 0.500000 1.000000 0.750000
v 0.000000 0.000000 0.000000
v 0.000000 0.000000 1.000000
v 1.000000 0.000000 0.000000
v 1.000000 0.000000 1.000000
vn -0.0000 0.2425 0.9701
vn -0.0000 1.0000 -0.0000
vn -0.8944 0.4472 -0.0000
vn -0.0000 0.2425 -0.9701
vt 0.999900 0.999900
vt 0.970050 0.000099
vt 0.970050 0.999902
vt 0.999900 0.000100
vt 0.000100 0.999900
vt 0.223659 0.999905
vt 0.485074 0.000099
vt 0.485074 0.999902
vt 0.000100 0.000100
vt 0.670788 0.999905
vt 0.000095 0.000095
vt 0.000098 0.999902
vt 0.000099 0.000099
vt 0.894353 0.000095
vt 0.970050 0.999902
vt 0.970050 0.000099
s 0
usemtl Material.015
f 8/16/1 2/3/1 4/8/1 6/13/1
f 4/9/2 2/4/2 1/1/2 3/5/2
f 4/10/3 3/6/3 5/11/3 6/14/3
f 7/15/4 5/12/4 3/7/4 1/2/4
