# Blender 3.5.1
# www.blender.org
mtllib hard_t-fork.mtl
o 0
v 1.000000 1.000000 0.250000
v 1.000000 0.000000 0.000000
v 0.750000 1.000000 1.000000
v 0.000000 1.000000 0.250000
v 0.000000 0.000000 0.000000
v 0.250000 1.000000 1.000000
v 0.000000 1.000000 0.750000
v 1.000000 1.000000 0.750000
v 0.000000 0.000000 1.000000
v 1.000000 0.000000 1.000000
vn -0.0000 1.0000 -0.0000
vn -0.6963 0.1741 0.6963
vn 0.6963 0.1741 0.6963
vn -0.0000 0.2425 -0.9701
vt 0.749957 0.000087
vt 0.970050 0.000099
vt 0.970050 0.999902
vt 0.000059 0.999941
vt 0.000087 0.250043
vt 0.749957 0.999913
vt 0.000098 0.000099
vt 0.000098 0.999902
vt 0.348173 0.999941
vt 0.000087 0.749957
vt 0.000059 0.999941
vt 0.250043 0.999913
vt 0.348173 0.999941
vt 0.250043 0.000087
vt 0.174116 0.000059
vt 0.174116 0.000059
s 0
usemtl Material.014
f 4/6/1 7/12/1 8/14/1 1/1/1
f 7/11/2 9/15/2 6/9/2
f 8/13/3 3/4/3 10/16/3
f 1/2/4 2/3/4 5/8/4 4/7/4
f 7/12/1 6/10/1 3/5/1 8/14/1
