# Blender 3.5.1
# www.blender.org
mtllib hard_heart-fork_hang.mtl
o Cube.001
v 1.000000 1.000000 1.000000
v 1.000000 1.000000 -0.000000
v 1.000000 0.000000 0.000000
v 1.000000 0.000000 1.000000
v 0.000000 1.000000 0.250000
v 0.000000 0.000000 0.250000
v 0.000000 1.000000 1.000000
v 0.000000 0.000000 1.000000
v 0.250000 1.000001 -0.000000
v 0.250000 0.000000 0.000000
v 0.000000 0.750000 -0.000000
v 0.000000 0.250000 -0.000000
vn -0.0000 -1.0000 -0.0000
vn -0.0000 1.0000 -0.0000
vn -0.5774 -0.5774 -0.5774
vn -0.5774 0.5773 -0.5773
vt 1.000000 1.000000
vt 1.000000 0.000000
vt 1.000000 0.000000
vt 1.000000 1.000000
vt 0.000000 0.249979
vt 0.000000 0.250000
vt 0.000000 1.000041
vt 0.000000 1.000000
vt 0.250000 0.000000
vt 0.250000 0.000000
vt 0.341175 0.342951
vt 0.341506 0.341506
s 0
usemtl Material.017
f 4/4/1 8/8/1 6/6/1 10/10/1 3/3/1
f 1/1/2 2/2/2 9/9/2 5/5/2 7/7/2
f 10/10/3 6/6/3 12/12/3
f 9/9/4 11/11/4 5/5/4
