# Blender 3.5.1
# www.blender.org
mtllib hard_fish-fork.mtl
o 0
v 1.000000 1.000000 0.250000
v 0.750000 1.000000 1.000000
v 0.000000 1.000000 0.250000
v 0.000000 1.000000 1.000000
v 1.000000 1.000000 0.750000
v 1.000000 0.000000 1.000000
v 0.750000 1.000000 -0.000000
v 0.250000 1.000000 -0.000000
v 1.000000 0.000000 0.000000
v 0.000000 0.000000 0.000000
v 0.500000 1.000000 0.500000
vn 0.6963 0.1741 0.6963
vn -0.6963 0.1741 -0.6963
vn 0.6963 0.1741 -0.6963
vn -0.0000 1.0000 -0.0000
vt 0.000059 0.999941
vt 0.249143 1.000171
vt 0.000059 0.999941
vt 0.999920 0.751225
vt 0.348173 0.999941
vt 0.246407 -0.000082
vt 1.002450 0.000000
vt 0.348173 0.999941
vt 0.751225 0.998655
vt 0.174116 0.000059
vt 0.348173 0.999941
vt -0.000171 0.751118
vt 0.000059 0.999941
vt -0.001347 0.247672
vt 0.174116 0.000059
vt 0.174116 0.000059
vt 0.500000 0.500000
s 0
usemtl Material.002
f 5/8/1 2/3/1 6/10/1
f 3/5/2 8/13/2 10/16/2
f 7/11/3 1/1/3 9/15/3
f 1/2/4 7/12/4 11/17/4
f 2/4/4 11/17/4 4/7/4
f 3/6/4 11/17/4 8/14/4
f 5/9/4 11/17/4 2/4/4
f 4/7/4 11/17/4 3/6/4
f 11/17/4 5/9/4 1/2/4
f 11/17/4 7/12/4 8/14/4
