# Blender 3.5.1
# www.blender.org
mtllib hard_x-fork_hang.mtl
o Cube.013
v 0.750000 1.000000 1.000000
v 0.250000 1.000001 1.000000
v 0.250000 0.000000 1.000000
v 1.000000 1.000000 0.250000
v 1.000000 0.000000 0.250000
v 1.000000 1.000000 0.750000
v 0.750000 0.000000 1.000000
v 1.000000 0.000000 0.750000
v 0.000000 1.000000 0.250000
v 0.000000 0.000000 0.250000
v 0.000000 1.000000 0.750000
v 0.000000 0.000000 0.750000
v 0.750000 1.000000 -0.000000
v 0.250000 1.000001 -0.000000
v 0.250000 0.000000 0.000000
v 0.750000 0.000000 0.000000
v 0.000000 0.250000 1.000000
v 0.000000 0.750000 1.000000
v 1.000000 0.250000 1.000000
v 1.000000 0.750000 1.000000
v 1.000000 0.250000 -0.000000
v 1.000000 0.750000 -0.000000
v 0.000000 0.250000 -0.000000
v 0.000000 0.750000 -0.000000
vn -0.5774 -0.5774 -0.5774
vn 0.5774 0.5774 -0.5774
vn -0.5774 0.5774 0.5774
vn -0.5774 -0.5774 0.5774
vn -0.5774 0.5774 -0.5774
vn 0.5774 0.5774 0.5774
vn -0.5774 0.5773 0.5773
vn -0.5774 0.5773 -0.5773
vn -0.0000 1.0000 -0.0000
vn -0.0000 -1.0000 -0.0000
vt 0.750000 1.000000
vt 0.251316 1.002135
vt 0.251316 1.002135
vt 1.000000 0.250000
vt 1.000000 0.250000
vt 0.657641 0.658001
vt 0.251316 1.002135
vt 1.000000 0.749015
vt 0.246060 0.004271
vt 1.000000 0.749015
vt 0.002548 0.249425
vt 0.750000 1.000000
vt 0.002548 0.249425
vt 0.658494 0.341506
vt 0.246060 0.004271
vt -0.001805 0.745729
vt 0.346809 0.654723
vt 0.750000 0.000000
vt 0.750000 0.000000
vt 0.246060 0.004271
vt 1.000000 0.250000
vt 0.002548 0.249425
vt 0.750000 1.000000
vt -0.001805 0.745729
vt -0.001805 0.745729
vt 0.346809 0.654723
vt 0.336614 0.337736
vt 0.657641 0.658001
vt 1.000000 0.749015
vt 0.658494 0.341506
vt 0.750000 0.000000
vt 0.336614 0.337736
s 0
usemtl Material.020
f 10/14/1 23/31/1 15/21/1
f 22/30/2 13/19/2 4/5/2
f 21/29/3 16/23/3 5/6/3
f 17/25/4 12/17/4 3/3/4
f 8/11/5 7/9/5 19/27/5
f 6/8/6 1/1/6 20/28/6
f 11/16/7 18/26/7 2/2/7
f 9/13/8 14/20/8 24/32/8
f 6/8/9 4/5/9 13/19/9 14/20/9 9/13/9 11/16/9 2/2/9 1/1/9
f 7/10/10 3/4/10 12/18/10 10/15/10 15/22/10 16/24/10 5/7/10 8/12/10
