# Blender 3.5.1
# www.blender.org
mtllib hard_narrow.mtl
o 0
v 1.000000 1.000000 0.250000
v 1.000000 0.000000 0.000000
v 1.000000 1.000000 0.750000
v 1.000000 0.000000 1.000000
v 0.000000 1.000000 0.250000
v 0.000000 0.000000 0.000000
v 0.000000 1.000000 0.750000
v 0.000000 0.000000 1.000000
vn -0.0000 0.2425 0.9701
vn -0.0000 0.2425 -0.9701
vn -0.0000 1.0000 -0.0000
vt 0.970050 0.000099
vt 0.000071 0.999929
vt 0.970050 0.999902
vt 0.000099 0.000098
vt 0.500000 0.999929
vt 0.000098 0.999901
vt 0.000071 0.000071
vt 0.000098 0.999902
vt 0.970050 0.000099
vt 0.500000 0.000071
vt 0.970050 0.999902
s 0
usemtl Material.030
f 4/6/1 3/4/1 7/9/1 8/11/1
f 1/1/2 2/3/2 6/8/2 5/7/2
f 7/10/3 3/5/3 1/2/3 5/7/3
l 6 8
