# Blender 3.5.1
# www.blender.org
mtllib soft_x-fork.mtl
o 0
v 1.000000 1.000000 0.500000
v 0.500000 1.000000 1.000000
v 0.000000 1.000000 0.500000
v 0.000000 0.000000 1.000000
v 1.000000 0.000000 1.000000
v 0.500000 1.000000 -0.000000
v 1.000000 0.000000 0.000000
v 0.000000 0.000000 0.000000
vn -0.6963 0.1741 0.6963
vn 0.6963 0.1741 0.6963
vn -0.6963 0.1741 -0.6963
vn 0.6963 0.1741 -0.6963
vn -0.0000 1.0000 -0.0000
vt 0.000077 0.200046
vt 0.000077 0.799953
vt 0.000100 0.000100
vt 0.000077 0.200046
vt 0.599985 0.000077
vt 0.000100 0.999900
vt 0.599985 0.000077
vt 0.599984 0.999923
vt 0.999900 0.999900
vt 0.599984 0.999923
vt 0.599985 0.999923
vt 0.000077 0.799953
vt 0.599984 0.999923
vt 0.999900 0.000100
vt 0.599984 0.000077
vt 0.599984 0.000077
s 0
usemtl Material.048
f 3/7/1 4/10/1 2/4/1
f 1/1/2 2/5/2 5/11/2
f 3/8/3 6/12/3 8/16/3
f 6/13/4 1/2/4 7/15/4
f 6/14/5 3/9/5 2/6/5 1/3/5
