# Blender 3.5.1
# www.blender.org
mtllib soft_spire.mtl
o 0
v 0.500000 1.000000 0.500000
v 1.000000 0.000000 1.000000
v 0.000000 0.000000 0.000000
v 0.000000 0.000000 1.000000
v 1.000000 0.000000 0.000000
vn -0.0000 0.4472 -0.8944
vn -0.8944 0.4472 -0.0000
vn -0.0000 0.4472 0.8944
vn 0.8944 0.4472 -0.0000
vt 0.447224 0.000094
vt 0.745314 0.999914
vt 0.000095 0.999905
vt 0.000086 0.333362
vt 0.745314 0.000086
vt 0.894353 0.999906
vt 0.000095 0.999905
vt 0.894352 0.999905
vt 0.000086 0.333362
vt 0.745314 0.000086
s 0
usemtl Material.034
f 5/9/1 3/5/1 1/2/1
f 4/7/2 1/1/2 3/6/2
f 2/3/3 1/1/3 4/8/3
f 5/10/4 1/2/4 2/4/4
