# Blender 3.5.1
# www.blender.org
mtllib soft_end.mtl
o 0
v 1.000000 1.000000 0.500000
v 0.000000 0.000000 0.000000
v 0.000000 0.000000 1.000000
v 1.000000 0.000000 0.000000
v 1.000000 0.000000 1.000000
vn -0.0000 0.4472 -0.8944
vn -0.0000 0.4472 0.8944
vn -0.7071 0.7071 -0.0000
vt 0.894352 0.000095
vt 0.496905 0.000070
vt 0.628519 0.000079
vt 0.000095 0.999905
vt 0.628519 0.999921
vt 0.496904 0.999929
vt 0.000079 0.777734
vt 0.894353 0.999905
vt 0.000070 0.555548
s 0
usemtl Material.041
f 4/8/1 2/4/1 1/1/1
f 1/2/2 3/6/2 5/9/2
f 3/7/3 1/3/3 2/5/3
