# Blender 3.5.1
# www.blender.org
mtllib soft_fish-fork.mtl
o 0
v 1.000000 1.000000 0.500000
v 0.500000 1.000000 1.000000
v 0.000000 1.000000 0.500000
v 0.000000 1.000000 1.000000
v 1.000000 0.000000 1.000000
v 0.500000 1.000000 -0.000000
v 1.000000 0.000000 0.000000
v 0.000000 0.000000 0.000000
vn 0.4218 0.2821 0.8617
vn 0.4371 0.2428 0.8660
vn 0.4417 0.2326 0.8665
vn -0.8660 0.2428 -0.4371
vn -0.8617 0.2821 -0.4218
vn -0.8665 0.2326 -0.4417
vn 0.6963 0.1741 -0.6963
vn -0.0000 1.0000 -0.0000
vn 0.2758 0.9497 0.1485
vn -0.0764 0.9864 -0.1453
vn 0.1866 0.9497 0.2516
vn -0.1485 0.9497 -0.2758
vt 0.000077 0.200046
vt 0.000077 0.799953
vt 0.666639 0.999918
vt 0.599985 0.000077
vt 0.666640 0.333361
vt 0.599984 0.999923
vt 0.000082 0.333361
vt 0.333361 0.000082
vt 0.599985 0.999923
vt 0.000077 0.799953
vt 0.599984 0.999923
vt 0.000082 0.999918
vt 0.599984 0.000077
vt 0.599984 0.000077
s 0
usemtl Material.042
f 1/1/1 2/4/2 5/9/3
f 3/6/4 6/10/5 8/14/6
f 6/11/7 1/2/7 7/13/7
f 4/8/8 2/5/9 1/3/10 6/12/11 3/7/12
