# Blender 3.5.1
# www.blender.org
mtllib soft_p-fork.mtl
o 0
v 1.000000 1.000000 0.500006
v 1.000000 0.000000 0.000000
v 1.000000 1.000000 1.000000
v 0.000000 1.000000 0.500000
v 0.000000 0.000000 0.000000
v 0.500000 1.000000 1.000000
v 0.000000 0.000000 1.000000
vn -0.0000 1.0000 -0.0000
vn -0.4218 0.2821 0.8617
vn -0.4417 0.2326 0.8665
vn -0.4371 0.2428 0.8660
vn -0.0000 0.2425 -0.9701
vt 0.499995 0.000074
vt 0.894350 0.000095
vt 0.894350 0.999905
vt 0.000074 0.000071
vt 0.499995 0.999929
vt 0.599985 0.000077
vt 0.000095 0.000097
vt 0.000095 0.999905
vt 0.000071 0.499998
vt 0.000077 0.200046
vt 0.599984 0.999923
s 0
usemtl Material.045
f 6/9/1 3/4/1 1/1/1 4/5/1
f 4/6/2 7/11/3 6/10/4
f 1/2/5 2/3/5 5/8/5 4/7/5
