# Blender 3.5.1
# www.blender.org
mtllib soft_narrow_hang.mtl
o 0.001
v 1.000000 1.000000 0.500000
v 1.000000 0.000000 0.500000
v 0.000000 1.000000 0.500000
v 0.000000 0.000000 0.500000
v 0.000000 0.500000 1.000000
v 1.000000 0.500000 1.000000
v 1.000000 0.500000 -0.000000
v 0.000000 0.500000 -0.000000
vn 0.3827 0.9239 0.0044
vn 0.1085 0.9313 0.3476
vn -0.3827 -0.0000 0.9239
vn -0.1526 0.2940 0.9435
vn -0.0541 -0.2949 -0.9540
vn -0.0002 -0.2590 -0.9659
vn -0.0001 -0.9659 0.2590
vn -0.0541 -0.9540 0.2949
vt 0.000084 0.999916
vt 0.707072 0.999916
vt 0.000084 0.000084
vt 0.000084 0.999916
vt 0.000084 0.000084
vt 0.707072 0.000084
vt 0.000084 0.999916
vt 0.000084 0.000084
vt 0.707072 0.000084
vt 0.707072 0.999916
vt 0.707072 0.999916
vt 0.707072 0.000084
vt 0.000084 0.999916
vt 0.707072 0.999916
vt 0.000084 0.000084
vt 0.707072 0.000084
s 1
usemtl Material.031
f 1/1/1 3/5/2 5/9/3 6/11/4
f 3/6/2 1/2/1 7/13/5 8/15/6
f 4/7/7 2/3/8 6/12/4 5/10/3
f 4/8/7 8/16/6 7/14/5 2/4/8
