# Blender 3.5.1
# www.blender.org
mtllib soft_narrow.mtl
o 0
v 1.000000 0.000000 0.000000
v 1.000000 1.000000 0.500000
v 1.000000 0.000000 1.000000
v 0.000000 0.000000 0.000000
v 0.000000 1.000000 0.500000
v 0.000000 0.000000 1.000000
vn -0.0000 0.4472 0.8944
vn -0.0000 0.4472 -0.8944
vt 0.000095 0.000095
vt 0.000095 0.000095
vt 0.000095 0.999905
vt 0.000095 0.999905
vt 0.894353 0.000095
vt 0.894352 0.000095
vt 0.894352 0.999905
vt 0.894353 0.999905
s 0
usemtl Material.030
f 3/4/1 2/2/1 5/6/1 6/8/1
f 4/5/2 5/7/2 2/3/2 1/1/2
l 4 6
