# Blender 3.5.1
# www.blender.org
mtllib soft_heart-fork.mtl
o 0
v 1.000000 1.000000 -0.000000
v 0.500000 1.000000 1.000000
v 0.000000 1.000000 -0.000000
v 0.000000 1.000000 1.000000
v 1.000000 1.000000 0.500000
v 1.000000 0.000000 1.000000
vn 0.6667 0.3333 0.6667
vn -0.0000 1.0000 -0.0000
vt 0.999900 0.000100
vt 0.599985 0.000077
vt 0.000100 0.500000
vt 0.999900 0.999900
vt 0.000100 0.999900
vt 0.000077 0.200046
vt 0.500000 0.000100
vt 0.599985 0.999923
s 0
usemtl Material.043
f 5/6/1 2/2/1 6/8/1
f 4/5/2 2/3/2 5/7/2 1/1/2 3/4/2
