# Blender 3.6.4
# www.blender.org
mtllib terrace_t-fork.mtl
o T-5
v -0.000001 -0.000000 0.000000
v 0.999999 0.000000 -0.000001
v 0.250000 0.500000 1.000000
v 0.750000 0.500000 0.999999
v -0.000001 0.250000 0.000000
v 0.000000 0.250000 1.000000
v 0.250000 0.250000 1.000000
v 0.750000 0.250000 0.999999
v 0.999999 0.250000 -0.000001
v 1.000000 0.250000 0.999999
v -0.000001 0.250000 0.250000
v -0.000000 0.250000 0.750000
v 0.250000 0.250000 0.750000
v -0.000000 0.500000 0.750000
v -0.000001 0.500000 0.250000
v 0.250000 0.500000 0.750000
v 0.750000 0.250000 0.750000
v 1.000000 0.250000 0.750000
v 0.999999 0.250000 0.250000
v 0.750000 0.500000 0.750000
v 1.000000 0.500000 0.750000
v 0.999999 0.500000 0.250000
vn -0.0000 -0.0000 -1.0000
vn -0.0000 1.0000 -0.0000
vn -0.0000 -0.0000 1.0000
vn 1.0000 -0.0000 -0.0000
vn -1.0000 -0.0000 -0.0000
vn -0.0000 -1.0000 -0.0000
vt 0.000000 0.000000
vt -0.265245 0.999929
vt 1.522973 0.999929
vt 1.780631 0.999929
vt 1.265315 0.375018
vt 1.265315 0.000071
vt 1.522973 0.000071
vt 1.522973 0.500000
vt -0.007587 0.250035
vt -0.265244 0.250035
vt -0.265244 0.000070
vt -0.007587 0.000071
vt 0.750000 0.375018
vt 0.750000 0.000071
vt 1.522973 0.749964
vt -0.265244 0.749964
s 0
usemtl Material.013
f 1/1/1 5/2/1 9/3/1 2/4/1
f 17/5/2 8/6/2 10/7/2 18/8/2
f 13/9/2 12/10/2 6/11/2 7/12/2
f 14/1/3 12/10/3 13/9/3 16/1/3
f 3/1/2 4/1/2 20/1/2 16/1/2
f 20/13/4 4/14/4 8/6/4 17/5/4
f 3/1/5 16/1/5 13/9/5 7/12/5
f 22/1/6 21/1/6 20/1/6 16/1/6 14/1/6 15/1/6
f 19/15/1 11/16/1 15/1/1 22/15/1
f 11/16/2 19/15/2 9/3/2 5/2/2
f 18/8/1 17/5/1 20/5/1 21/8/1
