# Blender 3.6.4
# www.blender.org
mtllib terrace_p-fork.mtl
o T-7
v 1.000000 0.750000 0.500000
v 1.000000 0.250000 0.000000
v 1.000000 0.000000 0.000000
v 0.000000 0.250000 0.000001
v 1.000000 0.250000 0.250000
v 1.000000 0.500000 0.250000
v 0.500001 0.750000 1.000000
v 1.000001 0.750000 0.750000
v 0.250000 0.500000 0.250000
v 1.000000 0.500000 0.500000
v 0.500001 0.500000 1.000000
v 0.500001 0.750000 0.500000
v 0.750001 1.000000 0.750000
v 0.000000 -0.000000 0.000001
v 0.000001 0.250000 1.000001
v 0.250001 0.250000 1.000000
v 1.000001 1.000000 0.750000
v 0.750001 1.000000 1.000000
v 1.000001 1.000000 1.000000
v 0.750001 0.750000 0.750000
v 0.750001 0.750000 1.000000
v 0.500001 0.500000 0.500000
v 0.250001 0.500000 1.000000
v 0.000000 0.500000 0.250001
v 0.000001 0.500000 0.750001
v 0.000000 0.250000 0.250001
v 0.000001 0.250000 0.750001
v 0.250000 0.500000 0.750000
v 0.250001 0.250000 0.750000
vn -0.0000 1.0000 -0.0000
vn -0.0000 -1.0000 -0.0000
vn 1.0000 -0.0000 -0.0000
vn -0.0000 -0.0000 1.0000
vn -0.0000 -0.0000 -1.0000
vn -1.0000 -0.0000 -0.0000
vt 0.000000 0.000000
vt -0.265244 0.000070
vt 0.632658 0.000036
vt 1.265315 0.000071
vt 0.750000 0.375018
vt 0.750000 0.000071
s 0
usemtl Material.020
f 5/1/1 2/2/1 4/1/1 26/1/1
f 13/1/2 17/1/2 19/1/2 18/1/2
f 12/1/3 7/1/3 11/1/3 22/1/3
f 20/1/4 8/1/4 17/1/4 13/1/4
f 22/1/4 10/1/4 1/1/4 12/1/4
f 5/1/4 6/1/4 9/1/4 24/1/4 26/1/4
f 3/1/5 14/1/5 4/1/5 2/2/5
f 13/1/3 18/1/3 21/1/3 20/1/3
f 20/1/2 21/1/2 7/1/2 12/1/2 1/1/2 8/1/2
f 23/1/2 28/1/2 9/1/2 6/1/2 10/1/2 22/1/2 11/1/2
f 16/1/1 29/3/1 27/4/1 15/1/1
f 24/1/1 25/1/1 28/1/1 9/1/1
f 23/1/6 28/1/6 29/3/6 16/1/6
f 27/4/4 29/3/4 28/5/4 25/6/4
