# Blender 3.6.4
# www.blender.org
mtllib terrace_fish-fork.mtl
o T-B
v 0.500000 0.750000 1.000001
v 1.000000 0.250000 1.000000
v 0.999998 0.250000 -0.000000
v 0.750000 0.500000 1.000000
v -0.000001 0.750000 0.500002
v 0.250000 0.750000 1.000001
v 0.749999 0.500000 0.250001
v 0.500000 0.500000 1.000001
v -0.000001 0.500000 0.500002
v 0.499999 0.750000 0.500001
v 0.250000 1.000000 0.750001
v -0.000002 0.250000 0.000001
v 0.250000 1.000000 1.000001
v -0.000000 1.000000 0.750002
v 0.000000 1.000000 1.000002
v 0.250000 0.750000 0.750001
v -0.000000 0.750000 0.750002
v 0.499999 0.500000 0.500001
v -0.000001 0.500000 0.250002
v 0.749999 0.250000 0.250000
v 0.750000 0.250000 1.000000
v -0.000001 0.250000 0.250002
v 0.750000 0.500000 0.750001
v 0.750000 0.250000 0.750001
v 1.000000 0.250000 0.750000
v 1.000000 0.500000 0.750000
v 0.999999 0.250000 0.250000
v 0.999999 0.500000 0.250000
v 0.249998 0.250000 0.000001
v 0.749998 0.250000 0.000000
v 0.249999 0.500000 0.000001
v 0.249999 0.250000 0.250001
v 0.749999 0.500000 0.000000
v 0.249999 0.500000 0.250001
vn -0.0000 -1.0000 -0.0000
vn -0.0000 -0.0000 1.0000
vn -1.0000 -0.0000 -0.0000
vn -0.0000 -0.0000 -1.0000
vn -0.0000 1.0000 -0.0000
vn 1.0000 -0.0000 -0.0000
vt 0.000000 0.000000
vt -0.198933 0.000053
vt -0.265244 0.000070
vt -0.066311 0.000018
s 0
usemtl Material.031
f 11/1/1 13/1/1 15/1/1 14/1/1
f 10/1/2 5/1/2 9/1/2 18/1/2
f 16/1/3 6/1/3 13/1/3 11/1/3
f 18/1/3 8/1/3 1/1/3 10/1/3
f 11/1/2 14/1/2 17/1/2 16/1/2
f 16/1/1 17/1/1 5/1/1 10/1/1 1/1/1 6/1/1
f 19/1/1 34/1/1 7/1/1 23/1/1 4/1/1 8/1/1 18/1/1 9/1/1
f 32/1/2 34/1/2 19/1/2 22/1/2
f 24/1/4 23/1/4 26/1/4 25/2/4
f 25/2/5 24/1/5 21/1/5 2/3/5
f 4/1/3 23/1/3 24/1/3 21/1/3
f 30/1/5 20/1/5 27/4/5 3/1/5
f 12/1/5 22/1/5 32/1/5 29/1/5
f 7/1/1 34/1/1 31/1/1 33/1/1
f 31/1/6 34/1/6 32/1/6 29/1/6
f 7/1/3 33/1/3 30/1/3 20/1/3
f 7/1/1 28/1/1 26/1/1 23/1/1
f 7/1/2 20/1/2 27/4/2 28/1/2
