# Blender 3.6.4
# www.blender.org
mtllib terrace_corner.mtl
o T-8
v 0.500000 0.750000 -0.000000
v 0.000000 0.250000 0.000000
v 0.000000 0.000000 0.000000
v 0.000001 0.250000 1.000000
v 0.250000 0.500000 -0.000000
v 1.000000 0.750000 0.499999
v 0.750000 0.750000 -0.000000
v 0.250000 0.500000 0.750000
v 0.500000 0.500000 -0.000000
v 1.000000 0.500000 0.499999
v 0.500000 0.750000 0.500000
v 0.750000 1.000000 0.250000
v 0.000001 -0.000000 1.000000
v 1.000001 0.250000 1.000000
v 0.750000 1.000000 -0.000000
v 1.000000 1.000000 0.249999
v 1.000000 1.000000 -0.000000
v 0.750000 0.750000 0.250000
v 1.000000 0.750000 0.249999
v 0.500000 0.500000 0.500000
v 1.000000 0.500000 0.749999
v 1.000001 -0.000000 1.000000
v 0.250000 0.250000 0.750000
v 0.250000 0.250000 -0.000000
v 1.000000 0.250000 0.749999
vn -0.0000 -0.0000 1.0000
vn -0.0000 -1.0000 -0.0000
vn -0.0000 -0.0000 -1.0000
vn 1.0000 -0.0000 -0.0000
vn -1.0000 -0.0000 -0.0000
vn -0.0000 1.0000 -0.0000
vt 0.000000 0.000000
vt -0.265244 0.000070
s 0
usemtl Material.022
f 13/1/1 22/1/1 14/1/1 4/1/1
f 12/1/2 15/1/2 17/1/2 16/1/2
f 11/1/3 6/1/3 10/1/3 20/1/3
f 18/1/4 7/1/4 15/1/4 12/1/4
f 20/1/4 9/1/4 1/1/4 11/1/4
f 3/1/5 13/1/5 4/1/5 2/2/5
f 12/1/3 16/1/3 19/1/3 18/1/3
f 18/1/2 19/1/2 6/1/2 11/1/2 1/1/2 7/1/2
f 21/1/2 8/1/2 5/1/2 9/1/2 20/1/2 10/1/2
f 8/1/3 21/1/3 25/1/3 23/1/3
f 5/1/4 8/1/4 23/1/4 24/1/4
f 14/1/6 25/1/6 23/1/6 24/1/6 2/2/6 4/1/6
