# Blender 3.6.4
# www.blender.org
mtllib terrace_hang.mtl
o T-E
v 0.000000 0.000000 1.000001
v -0.000001 0.000000 0.000001
v 0.500000 -0.000000 1.000000
v 0.499999 0.000000 0.000000
v 0.000000 0.250000 1.000001
v -0.000001 0.250000 0.000001
v 0.749999 0.250000 0.000000
v 0.750000 0.250000 1.000000
v -0.000001 0.500000 0.250001
v -0.000000 0.250000 0.750001
v -0.000000 0.500000 0.750001
v -0.000001 0.250000 0.250001
v 0.999999 0.500000 0.250000
v 1.000000 0.500000 0.750000
v 0.750000 0.250000 0.750000
v 0.749999 0.250000 0.250000
vn -0.0000 -0.0000 1.0000
vn -0.0000 -0.0000 -1.0000
vn -0.0000 1.0000 -0.0000
vn -0.0000 -1.0000 -0.0000
vn 0.7071 -0.7071 -0.0000
vt -0.000001 -0.793177
vt -0.000001 -1.099236
vt 0.749999 -1.099236
vt 0.749999 -0.793177
vt -0.000001 2.099236
vt -0.000001 1.793177
vt 0.749999 1.793177
vt 0.749999 2.099236
vt 0.783078 0.343750
vt 0.000000 0.000000
vt 0.783078 0.156250
vt 1.566156 0.687500
vt 1.566156 0.875000
vt 1.566156 0.125000
vt 1.566156 0.312500
vt 1.838209 0.125000
vt 1.838209 0.875000
s 0
usemtl Material.036
f 5/1/1 1/2/1 3/3/1 8/4/1
f 2/5/2 6/6/2 7/7/2 4/8/2
f 16/9/2 12/10/2 9/10/2 13/9/2
f 11/10/3 14/11/3 13/9/3 9/10/3
f 6/6/3 12/10/3 16/12/3 7/13/3
f 8/14/3 15/15/3 10/10/3 5/1/3
f 3/16/4 1/2/4 2/5/4 4/17/4
f 11/10/1 10/10/1 15/11/1 14/11/1
f 16/9/5 13/9/5 14/11/5 15/15/5 8/14/5 3/16/5 4/17/5 7/13/5
