# Blender 3.5.1
# www.blender.org
mtllib voxelvariants.mtl
o 0
v 0.250000 0.500000 -0.250000
v 0.500000 -0.500000 -0.500000
v 0.250000 0.500000 0.250000
v 0.500000 -0.500000 0.500000
v -0.250000 0.500000 -0.250000
v -0.500000 -0.500000 -0.500000
v -0.250000 0.500000 0.250000
v -0.500000 -0.500000 0.500000
vn -0.0000 1.0000 -0.0000
vn -0.0000 0.2425 0.9701
vn -0.9701 0.2425 -0.0000
vn 0.9701 0.2425 -0.0000
vn -0.0000 0.2425 -0.9701
vt 0.625000 0.500000
vt 0.375000 0.500000
vt 0.625000 0.750000
vt 0.375000 0.750000
vt 0.875000 0.500000
vt 0.625000 0.250000
vt 0.375000 0.250000
vt 0.625000 1.000000
vt 0.625000 0.000000
vt 0.875000 0.750000
vt 0.375000 1.000000
vt 0.375000 0.000000
s 0
usemtl Material
f 1/1/1 5/5/1 7/10/1
f 4/4/2 7/8/2 8/11/2
f 8/12/3 7/9/3 6/7/3
f 2/2/4 1/1/4 4/4/4
f 6/7/5 5/6/5 1/1/5
f 4/4/4 1/1/4 3/3/4
f 1/1/5 2/2/5 6/7/5
f 7/8/2 4/4/2 3/3/2
f 6/7/3 7/9/3 5/6/3
f 7/10/1 3/3/1 1/1/1
o -1
o 1
v -0.500000 -0.500000 -0.500000
v -0.500000 -0.500000 -1.500000
v 0.500000 -0.500000 -1.500000
v -0.250000 0.500000 -0.750000
v 0.500000 0.500000 -0.500000
v -0.250000 0.500000 -1.250000
v 0.250000 0.500000 -1.250000
vn 0.9701 -0.2425 -0.0000
vn -0.0000 -0.2425 0.9701
vn -0.0000 -1.0000 -0.0000
vt 0.000000 0.000000
vt 0.000000 0.000000
vt 0.000000 0.000000
vt 0.000000 0.000000
vt 0.000000 0.000000
vt 0.000000 0.000000
vt 0.000000 0.000000
s 0
usemtl Material
f 9/13/6 10/14/6 12/16/6
f 10/14/7 11/15/7 15/19/7
f 14/18/8 15/19/8 12/16/8
f 12/16/8 15/19/8 13/17/8
f 12/16/6 10/14/6 14/18/6
f 15/19/7 14/18/7 10/14/7
o 2
v 0.500000 -0.500000 -2.500000
v 0.250000 0.500000 -2.750000
v -0.500000 0.500000 -2.500000
v -0.750000 0.500000 -1.750000
v -0.500000 -0.500000 -1.500000
vn -0.6667 -0.3333 -0.6667
vn -0.0000 -1.0000 -0.0000
vt 0.000000 0.000000
vt 0.000000 0.000000
vt 0.000000 0.000000
vt 0.000000 0.000000
vt 0.000000 0.000000
s 0
usemtl Material
f 19/23/9 16/20/9 20/24/9
f 16/20/9 19/23/9 17/21/9
f 18/22/10 17/21/10 19/23/10
o 12
v -0.500000 -0.500000 -11.500000
v -0.500000 0.500000 -11.750000
v -0.250000 0.500000 -12.250000
v 0.500000 -0.500000 -11.500000
v 0.500000 0.500000 -11.750000
v 0.500000 0.500000 -12.500000
v -0.500000 -0.500000 -12.500000
v -0.500000 0.500000 -12.250000
vn -0.0000 -1.0000 -0.0000
vn -0.0000 -0.2425 -0.9701
vn -0.0000 0.2425 -0.9701
vt 0.000000 0.000000
vt 0.000000 0.000000
vt 0.000000 0.000000
vt 0.000000 0.000000
vt 0.000000 0.000000
vt 0.000000 0.000000
vt 0.000000 0.000000
vt 0.000000 0.000000
s 0
usemtl Material
f 22/26/11 26/30/11 25/29/11
f 21/25/12 22/26/12 24/28/12
f 26/30/11 22/26/11 23/27/11
f 24/28/12 22/26/12 25/29/12
f 23/27/13 27/31/13 28/32/13
f 23/27/11 22/26/11 28/32/11
o 10
v -0.500000 0.500000 -9.500000
v -0.500000 -0.500000 -10.500000
v -0.500000 0.500000 -10.250000
v 0.500000 -0.500000 -10.500000
v 0.250000 0.500000 -10.250000
v 0.500000 0.500000 -9.500000
vn -0.0000 0.2425 -0.9701
vn -0.0000 1.0000 -0.0000
vt 0.000000 0.000000
vt 0.000000 0.000000
vt 0.000000 0.000000
vt 0.000000 0.000000
vt 0.000000 0.000000
vt 0.000000 0.000000
s 0
usemtl Material
f 30/34/14 33/37/14 32/36/14
f 30/34/14 31/35/14 33/37/14
f 33/37/15 31/35/15 34/38/15
f 29/33/15 34/38/15 31/35/15
o 11
v 0.500000 -0.500000 -10.500000
v 0.250000 0.500000 -10.500000
v -0.250000 0.500000 -10.750000
v 0.500000 -0.500000 -11.500000
v 0.250000 0.500000 -11.250000
v -0.500000 0.500000 -11.500000
v -0.250000 0.500000 -10.500000
v -0.500000 -0.500000 -10.500000
vn -0.9701 -0.2425 -0.0000
vn -0.0000 -1.0000 -0.0000
vn -0.9701 0.2425 -0.0000
vt 0.000000 0.000000
vt 0.000000 0.000000
vt 0.000000 0.000000
vt 0.000000 0.000000
vt 0.000000 0.000000
vt 0.000000 0.000000
vt 0.000000 0.000000
vt 0.000000 0.000000
s 0
usemtl Material
f 35/39/16 39/43/16 38/42/16
f 36/40/17 37/41/17 39/43/17
f 39/43/17 37/41/17 40/44/17
f 39/43/16 35/39/16 36/40/16
f 41/45/18 37/41/18 42/46/18
f 36/40/17 41/45/17 37/41/17
o 8
v 0.500000 0.500000 -7.500000
v 0.500000 0.500000 -8.500000
v -0.500000 -0.500000 -7.500000
v -0.500000 -0.500000 -8.500000
v -0.250000 0.500000 -7.750000
v -0.250000 0.500000 -8.250000
vn -0.0000 1.0000 -0.0000
vn -0.9701 0.2425 -0.0000
vt 0.000000 0.000000
vt 0.000000 0.000000
vt 0.000000 0.000000
vt 0.000000 0.000000
vt 0.000000 0.000000
vt 0.000000 0.000000
s 0
usemtl Material
f 43/47/19 44/48/19 48/52/19
f 46/50/20 45/49/20 48/52/20
f 48/52/19 47/51/19 43/47/19
f 48/52/20 45/49/20 47/51/20
o 4
v 0.500000 -0.500000 -3.500000
v -0.500000 -0.500000 -3.500000
v 0.250000 0.500000 -3.500000
v -0.250000 0.500000 -3.500000
v 0.500000 -0.500000 -4.500000
v -0.500000 -0.500000 -4.500000
v 0.250000 0.500000 -4.250000
v -0.250000 0.500000 -4.250000
vn -0.0000 -1.0000 -0.0000
vn -0.0000 -0.2425 0.9701
vn 0.9701 -0.2425 -0.0000
vn -0.9701 -0.2425 -0.0000
vt 0.000000 0.000000
vt 0.000000 0.000000
vt 0.000000 0.000000
vt 0.000000 0.000000
vt 0.000000 0.000000
vt 0.000000 0.000000
vt 0.000000 0.000000
vt 0.000000 0.000000
s 0
usemtl Material
f 51/55/21 52/56/21 56/60/21
f 54/58/22 53/57/22 56/60/22
f 52/56/23 50/54/23 56/60/23
f 49/53/24 51/55/24 53/57/24
f 53/57/24 51/55/24 55/59/24
f 56/60/21 55/59/21 51/55/21
f 56/60/22 53/57/22 55/59/22
f 56/60/23 50/54/23 54/58/23
o 6
v -0.500000 -0.500000 -5.500000
v 0.500000 -0.500000 -5.500000
v -0.500000 -0.500000 -6.500000
v -0.250000 0.500000 -5.750000
v 0.500000 0.500000 -5.750000
v -0.250000 0.500000 -6.250000
v 0.500000 0.500000 -6.500000
vn 0.9701 -0.2425 -0.0000
vn -0.0000 -1.0000 -0.0000
vn -0.0000 -0.2425 -0.9701
vt 0.000000 0.000000
vt 0.000000 0.000000
vt 0.000000 0.000000
vt 0.000000 0.000000
vt 0.000000 0.000000
vt 0.000000 0.000000
vt 0.000000 0.000000
s 0
usemtl Material
f 59/63/25 62/66/25 57/61/25
f 62/66/26 63/67/26 61/65/26
f 61/65/27 57/61/27 60/64/27
f 57/61/25 62/66/25 60/64/25
f 61/65/26 60/64/26 62/66/26
f 58/62/27 57/61/27 61/65/27
o 7
v -0.500000 -0.500000 -6.500000
v -0.500000 0.500000 -6.750000
v -0.500000 0.500000 -7.500000
v 0.500000 -0.500000 -6.500000
v 0.500000 -0.500000 -7.500000
v 0.250000 0.500000 -6.750000
v 0.250000 0.500000 -7.500000
vn -0.0000 -1.0000 -0.0000
vn -0.9701 -0.2425 -0.0000
vn -0.0000 -0.2425 -0.9701
vt 0.000000 0.000000
vt 0.000000 0.000000
vt 0.000000 0.000000
vt 0.000000 0.000000
vt 0.000000 0.000000
vt 0.000000 0.000000
vt 0.000000 0.000000
s 0
usemtl Material
f 65/69/28 70/74/28 69/73/28
f 68/72/29 67/71/29 70/74/29
f 64/68/30 65/69/30 67/71/30
f 70/74/28 65/69/28 66/70/28
f 67/71/30 65/69/30 69/73/30
f 70/74/29 67/71/29 69/73/29
o 3
v 0.250000 0.500000 -2.750000
v -0.500000 0.500000 -2.500000
v 0.500000 0.500000 -3.500000
v -0.250000 0.500000 -3.250000
vn -0.0000 -1.0000 -0.0000
vt 0.000000 0.000000
vt 0.000000 0.000000
vt 0.000000 0.000000
vt 0.000000 0.000000
s 0
usemtl Material
f 71/75/31 72/76/31 74/78/31
f 71/75/31 74/78/31 73/77/31
o 5
v 0.500000 -0.500000 -5.500000
v -0.500000 -0.500000 -5.500000
v 0.250000 0.500000 -5.500000
v -0.250000 0.500000 -5.500000
v 0.500000 -0.500000 -4.500000
v -0.500000 -0.500000 -4.500000
v 0.250000 0.500000 -4.500000
v -0.250000 0.500000 -4.500000
vn -0.0000 1.0000 -0.0000
vn -0.9701 0.2425 -0.0000
vn 0.9701 0.2425 -0.0000
vt 0.000000 0.000000
vt 0.000000 0.000000
vt 0.000000 0.000000
vt 0.000000 0.000000
vt 0.000000 0.000000
vt 0.000000 0.000000
vt 0.000000 0.000000
vt 0.000000 0.000000
s 0
usemtl Material
f 77/81/32 78/82/32 82/86/32
f 78/82/33 76/80/33 82/86/33
f 75/79/34 77/81/34 79/83/34
f 79/83/34 77/81/34 81/85/34
f 82/86/32 81/85/32 77/81/32
f 82/86/33 76/80/33 80/84/33
l 80 79
o 9
v -0.500000 -0.500000 -8.500000
v -0.500000 -0.500000 -9.500000
v -0.250000 0.500000 -9.750000
v -0.250000 0.500000 -8.250000
v 0.500000 0.500000 -8.500000
v 0.500000 0.500000 -9.500000
v -0.250000 0.500000 -8.250000
v 0.500000 0.500000 -8.500000
v 0.000000 -0.500000 -9.000000
vn -0.0000 1.0000 -0.0000
vn 0.8944 -0.4472 -0.0000
vn 0.5774 -0.5774 -0.5774
vn 0.3015 -0.3015 -0.9045
vn 0.5774 -0.5774 0.5774
vn 0.3015 -0.3015 0.9045
vt 0.000000 0.000000
vt 0.000000 0.000000
vt 0.000000 0.000000
vt 0.000000 0.000000
vt 0.000000 0.000000
vt 0.000000 0.000000
vt 0.000000 0.000000
vt 0.000000 0.000000
vt 0.000000 0.000000
s 0
usemtl Material
f 87/91/35 86/90/35 89/93/35 90/94/35
f 90/94/36 91/95/36 88/92/36
f 91/95/37 84/88/37 88/92/37
f 84/88/38 85/89/38 88/92/38
f 91/95/39 90/94/39 83/87/39
f 89/93/40 83/87/40 90/94/40
l 86 83
o 13
v 0.500000 0.500000 -12.500000
v -0.500000 0.500000 -12.500000
v 0.500000 0.500000 -13.500000
v -0.500000 0.500000 -13.500000
vn -0.0000 1.0000 -0.0000
vt 0.000000 0.000000
vt 0.000000 0.000000
vt 0.000000 0.000000
vt 0.000000 0.000000
s 0
usemtl Material
f 93/97/41 94/98/41 95/99/41
f 94/98/41 93/97/41 92/96/41
